{"accessors" : [{"bufferView" : 0, "byteOffset" : 0, "componentType" : 5123, "count" : 180, "type" : "SCALAR", "max" : [119], "min" : [0]}, {"bufferView" : 1, "byteOffset" : 0, "componentType" : 5126, "count" : 120, "type" : "VEC3", "max" : [-68.75609588623047, -2545.196533203125, 873.7174072265625], "min" : [-674.0820922851562, -3140.80712890625, 36.65327453613281], "name" : "POSITION"}], "asset" : {"generator" : "Aspose.3D 24.6.0", "version" : "2.0"}, "buffers" : [{"uri" : "data:application/octet-stream;base64,", "byteLength" : 1808}], "bufferViews" : [{"buffer" : 0, "byteOffset" : 0, "byteLength" : 360, "target" : 34963}, {"buffer" : 0, "byteOffset" : 364, "byteLength" : 1440, "byteStride" : 12, "target" : 34962}], "meshes" : [{"primitives" : [{"attributes" : {"POSITION" : 1}, "indices" : 0, "mode" : 4}], "name" : ""}], "nodes" : [{"mesh" : 0, "name" : "billy_visual ______"}], "scene" : 0, "scenes" : [{"nodes" : [0]}]}